<?xml version="1.0" encoding="utf-8"?>
<!-- Generator: Adobe Illustrator 22.0.1, SVG Export Plug-In . SVG Version: 6.00 Build 0)  -->
<svg version="1.1" id="Layer_1" xmlns="http://www.w3.org/2000/svg" xmlns:xlink="http://www.w3.org/1999/xlink" x="0px" y="0px"
	 width="30px" height="30px" viewBox="0 0 30 30" style="enable-background:new 0 0 30 30;" xml:space="preserve">
<style type="text/css">
	.st0{fill:#005AAC;}
	.st1{fill:#FFFFFF;}
</style>
<g>
	<path class="st0" d="M0,22.2V7.8C0,3.5,3.5,0,7.8,0h14.3C26.5,0,30,3.5,30,7.8l0,14.3c0,4.3-3.5,7.8-7.8,7.8h-4.8l-2.5-0.6L12.7,30
		H7.8C3.5,30,0,26.5,0,22.2"/>
	<path class="st1" d="M20.8,19.8l0.7-4.3h-4.2v-2.8c0-1.2,0.6-2.3,2.4-2.3h1.9V6.6c0,0-1.7-0.3-3.4-0.3c-3.4,0-5.7,2.1-5.7,5.8v3.3
		H8.8v4.3h3.8V30h4.7V19.8H20.8z"/>
</g>
</svg>
