<?xml version="1.0" encoding="utf-8"?>
<!-- Generator: Adobe Illustrator 22.0.1, SVG Export Plug-In . SVG Version: 6.00 Build 0)  -->
<svg version="1.1" id="Layer_1" xmlns="http://www.w3.org/2000/svg" xmlns:xlink="http://www.w3.org/1999/xlink" x="0px" y="0px"
	 width="30px" height="30px" viewBox="0 0 30 30" style="enable-background:new 0 0 30 30;" xml:space="preserve">
<style type="text/css">
	.st0{fill:#005AAC;}
	.st1{fill:#FFFFFF;}
</style>
<g>
	<path class="st0" d="M0,22.2V7.8C0,3.5,3.5,0,7.8,0h14.3C26.5,0,30,3.5,30,7.8v14.3c0,4.3-3.5,7.8-7.8,7.8H7.8
		C3.5,30,0,26.5,0,22.2"/>
	<path class="st1" d="M19.7,9.3c-0.6,0-1,0.5-1,1s0.5,1,1,1c0.6,0,1-0.5,1-1S20.2,9.3,19.7,9.3"/>
	<path class="st1" d="M15.1,10.7c-2.4,0-4.3,1.9-4.3,4.3c0,2.4,1.9,4.3,4.3,4.3c2.4,0,4.3-1.9,4.3-4.3
		C19.4,12.6,17.5,10.7,15.1,10.7 M15.1,17.8c-1.5,0-2.8-1.2-2.8-2.8c0-1.5,1.2-2.8,2.8-2.8c1.5,0,2.8,1.2,2.8,2.8
		C17.8,16.5,16.6,17.8,15.1,17.8"/>
	<path class="st1" d="M18.5,23.8h-7c-2.9,0-5.3-2.4-5.3-5.3v-7c0-2.9,2.4-5.3,5.3-5.3h7c2.9,0,5.3,2.4,5.3,5.3v7
		C23.8,21.4,21.4,23.8,18.5,23.8 M11.5,7.9c-2,0-3.6,1.6-3.6,3.6v7c0,2,1.6,3.6,3.6,3.6h7c2,0,3.6-1.6,3.6-3.6v-7
		c0-2-1.6-3.6-3.6-3.6H11.5z"/>
</g>
</svg>
