<?xml version="1.0" encoding="utf-8"?>
<!-- Generator: Adobe Illustrator 22.0.1, SVG Export Plug-In . SVG Version: 6.00 Build 0)  -->
<svg version="1.1" id="Layer_1" xmlns="http://www.w3.org/2000/svg" xmlns:xlink="http://www.w3.org/1999/xlink" x="0px" y="0px"
	 width="30px" height="30px" viewBox="0 0 30 30" style="enable-background:new 0 0 30 30;" xml:space="preserve">
<style type="text/css">
	.st0{fill:#005AAC;}
	.st1{fill:#FFFFFF;}
</style>
<g>
	<path class="st0" d="M0,22.2V7.8C0,3.5,3.5,0,7.8,0h14.3C26.5,0,30,3.5,30,7.8v14.3c0,4.3-3.5,7.8-7.8,7.8H7.8
		C3.5,30,0,26.5,0,22.2"/>
	<path class="st1" d="M8.7,12.2h2.9v9.3H8.7V12.2z M10.2,7.6c0.9,0,1.7,0.8,1.7,1.7c0,0.9-0.8,1.7-1.7,1.7c-0.9,0-1.7-0.8-1.7-1.7
		C8.5,8.3,9.2,7.6,10.2,7.6"/>
	<path class="st1" d="M13.4,12.2h2.8v1.3h0c0.4-0.7,1.3-1.5,2.7-1.5c2.9,0,3.5,1.9,3.5,4.4v5.1h-2.9V17c0-1.1,0-2.5-1.5-2.5
		c-1.5,0-1.7,1.2-1.7,2.4v4.6h-2.9V12.2z"/>
</g>
</svg>
